<svg width="288" height="85" viewBox="0 0 288 85" fill="none" xmlns="http://www.w3.org/2000/svg">
<path d="M138.84 69V33.48H145.032L155.496 54.6L165.912 33.48H172.104V69H167.496V40.392L157.704 59.88H153.24L143.448 40.296V69H138.84ZM190.322 43.08C191.922 43.08 193.266 43.336 194.354 43.848C195.442 44.36 196.322 44.968 196.994 45.672C197.666 46.344 198.178 46.984 198.53 47.592H198.818V43.56H203.378V69H198.818V64.968H198.53C198.178 65.576 197.666 66.232 196.994 66.936C196.322 67.64 195.442 68.248 194.354 68.76C193.266 69.24 191.922 69.48 190.322 69.48C188.402 69.48 186.722 69.112 185.282 68.376C183.842 67.608 182.642 66.6 181.682 65.352C180.722 64.072 180.002 62.648 179.522 61.08C179.042 59.512 178.802 57.912 178.802 56.28C178.802 54.648 179.042 53.048 179.522 51.48C180.002 49.912 180.722 48.504 181.682 47.256C182.642 45.976 183.842 44.968 185.282 44.232C186.722 43.464 188.402 43.08 190.322 43.08ZM191.09 46.968C189.394 46.968 187.97 47.432 186.818 48.36C185.666 49.256 184.802 50.408 184.226 51.816C183.682 53.224 183.41 54.712 183.41 56.28C183.41 57.816 183.682 59.304 184.226 60.744C184.802 62.152 185.666 63.32 186.818 64.248C187.97 65.144 189.394 65.592 191.09 65.592C192.786 65.592 194.194 65.144 195.314 64.248C196.466 63.32 197.314 62.152 197.858 60.744C198.434 59.304 198.722 57.816 198.722 56.28C198.722 54.712 198.434 53.224 197.858 51.816C197.314 50.408 196.466 49.256 195.314 48.36C194.194 47.432 192.786 46.968 191.09 46.968ZM219.941 69.48C217.317 69.48 215.333 68.808 213.989 67.464C212.677 66.12 212.021 64.232 212.021 61.8V47.304H207.461V43.56H212.021V37.176H216.581V43.56H222.773V47.304H216.581V61.8C216.581 63.08 216.933 64.024 217.637 64.632C218.341 65.208 219.365 65.496 220.709 65.496C221.413 65.496 222.085 65.448 222.725 65.352C223.365 65.256 223.685 65.208 223.685 65.208V69.096C223.685 69.096 223.317 69.16 222.581 69.288C221.845 69.416 220.965 69.48 219.941 69.48ZM240.783 69.48C238.703 69.48 236.879 69.112 235.311 68.376C233.743 67.608 232.431 66.6 231.375 65.352C230.351 64.072 229.567 62.648 229.023 61.08C228.511 59.512 228.255 57.912 228.255 56.28C228.255 54.648 228.511 53.064 229.023 51.528C229.535 49.96 230.303 48.536 231.327 47.256C232.383 45.976 233.695 44.968 235.263 44.232C236.831 43.464 238.671 43.08 240.783 43.08C242.831 43.08 244.527 43.384 245.871 43.992C247.215 44.6 248.287 45.368 249.087 46.296C249.919 47.192 250.527 48.104 250.911 49.032C251.327 49.928 251.599 50.68 251.727 51.288C251.855 51.896 251.919 52.2 251.919 52.2H247.503C247.503 52.2 247.423 51.944 247.263 51.432C247.103 50.888 246.799 50.28 246.351 49.608C245.903 48.936 245.231 48.344 244.335 47.832C243.439 47.288 242.255 47.016 240.783 47.016C239.023 47.016 237.535 47.464 236.319 48.36C235.135 49.224 234.239 50.36 233.631 51.768C233.055 53.176 232.767 54.68 232.767 56.28C232.767 57.88 233.055 59.384 233.631 60.792C234.239 62.2 235.135 63.352 236.319 64.248C237.535 65.112 239.023 65.544 240.783 65.544C242.255 65.544 243.439 65.288 244.335 64.776C245.231 64.232 245.903 63.624 246.351 62.952C246.799 62.28 247.103 61.688 247.263 61.176C247.423 60.632 247.503 60.36 247.503 60.36H251.919C251.919 60.36 251.855 60.664 251.727 61.272C251.599 61.88 251.327 62.648 250.911 63.576C250.527 64.472 249.919 65.384 249.087 66.312C248.287 67.208 247.215 67.96 245.871 68.568C244.527 69.176 242.831 69.48 240.783 69.48ZM258.653 69V32.52H263.213V47.256H263.501C263.725 46.872 264.093 46.344 264.605 45.672C265.149 45 265.917 44.408 266.909 43.896C267.901 43.352 269.149 43.08 270.653 43.08C272.509 43.08 274.093 43.512 275.405 44.376C276.717 45.208 277.709 46.344 278.381 47.784C279.085 49.224 279.437 50.84 279.437 52.632V69H274.877V52.92C274.877 51.224 274.397 49.816 273.437 48.696C272.509 47.576 271.149 47.016 269.357 47.016C267.917 47.016 266.749 47.384 265.853 48.12C264.957 48.824 264.285 49.768 263.837 50.952C263.421 52.104 263.213 53.336 263.213 54.648V69H258.653Z" fill="black"/>
<path d="M37.888 23.688C37.5893 26.7173 37.44 29.448 37.44 31.88C37.44 34.0133 37.504 35.7627 37.632 37.128H36.16C35.8187 33.8427 35.392 31.4107 34.88 29.832C34.368 28.2107 33.472 27.0373 32.192 26.312C30.912 25.544 28.9493 25.16 26.304 25.16H22.848V61.576C22.848 63.368 23.0187 64.6693 23.36 65.48C23.7013 66.2907 24.2987 66.8453 25.152 67.144C26.0053 67.4427 27.392 67.6347 29.312 67.72V69C27.0933 68.872 23.9573 68.808 19.904 68.808C15.6373 68.808 12.48 68.872 10.432 69V67.72C12.352 67.6347 13.7387 67.4427 14.592 67.144C15.4453 66.8453 16.0427 66.2907 16.384 65.48C16.7253 64.6693 16.896 63.368 16.896 61.576V25.16H13.44C10.7947 25.16 8.832 25.544 7.552 26.312C6.272 27.0373 5.376 28.2107 4.864 29.832C4.352 31.4107 3.92533 33.8427 3.584 37.128H2.112C2.24 35.7627 2.304 34.0133 2.304 31.88C2.304 29.448 2.15467 26.7173 1.856 23.688C5.39733 23.816 11.4133 23.88 19.904 23.88C28.352 23.88 34.3467 23.816 37.888 23.688ZM63.494 22.792C66.054 22.792 68.23 23.1547 70.022 23.88C71.814 24.6053 73.5633 25.6293 75.27 26.952C75.7393 27.336 76.1447 27.528 76.486 27.528C77.3393 27.528 77.894 26.248 78.15 23.688H79.622C79.4513 26.4613 79.366 31.368 79.366 38.408H77.894C77.4247 35.6347 76.998 33.6507 76.614 32.456C76.23 31.2187 75.59 30.0453 74.694 28.936C73.414 27.272 71.7713 26.0347 69.766 25.224C67.8033 24.3707 65.67 23.944 63.366 23.944C60.5927 23.944 58.1607 24.8613 56.07 26.696C54.022 28.5307 52.422 31.1547 51.27 34.568C50.118 37.9387 49.542 41.9067 49.542 46.472C49.542 51.1227 50.1607 55.112 51.398 58.44C52.6353 61.768 54.342 64.3067 56.518 66.056C58.7367 67.7627 61.2327 68.616 64.006 68.616C66.1393 68.616 68.2087 68.2107 70.214 67.4C72.2193 66.5893 73.798 65.3733 74.95 63.752C75.8033 62.5573 76.422 61.2773 76.806 59.912C77.19 58.5467 77.5527 56.456 77.894 53.64H79.366C79.366 60.9787 79.4513 66.0987 79.622 69H78.15C78.022 67.6347 77.83 66.6747 77.574 66.12C77.3607 65.5227 77.0407 65.224 76.614 65.224C76.2727 65.224 75.8247 65.3947 75.27 65.736C73.35 67.1013 71.5153 68.1467 69.766 68.872C68.0167 69.5547 65.9047 69.896 63.43 69.896C59.3767 69.896 55.814 68.9787 52.742 67.144C49.7127 65.3093 47.3447 62.664 45.638 59.208C43.974 55.7093 43.142 51.5493 43.142 46.728C43.142 42.0347 43.9953 37.8747 45.702 34.248C47.4513 30.6213 49.862 27.8053 52.934 25.8C56.0487 23.7947 59.5687 22.792 63.494 22.792ZM107.557 22.792C110.117 22.792 112.293 23.1547 114.085 23.88C115.877 24.6053 117.626 25.6293 119.333 26.952C119.802 27.336 120.207 27.528 120.549 27.528C121.402 27.528 121.957 26.248 122.213 23.688H123.685C123.514 26.4613 123.429 31.368 123.429 38.408H121.957C121.487 35.6347 121.061 33.6507 120.677 32.456C120.293 31.2187 119.653 30.0453 118.757 28.936C117.477 27.272 115.834 26.0347 113.829 25.224C111.866 24.3707 109.733 23.944 107.429 23.944C104.655 23.944 102.223 24.8613 100.133 26.696C98.0845 28.5307 96.4845 31.1547 95.3325 34.568C94.1805 37.9387 93.6045 41.9067 93.6045 46.472C93.6045 51.1227 94.2232 55.112 95.4605 58.44C96.6978 61.768 98.4045 64.3067 100.581 66.056C102.799 67.7627 105.295 68.616 108.069 68.616C110.202 68.616 112.271 68.2107 114.277 67.4C116.282 66.5893 117.861 65.3733 119.013 63.752C119.866 62.5573 120.485 61.2773 120.869 59.912C121.253 58.5467 121.615 56.456 121.957 53.64H123.429C123.429 60.9787 123.514 66.0987 123.685 69H122.213C122.085 67.6347 121.893 66.6747 121.637 66.12C121.423 65.5227 121.103 65.224 120.677 65.224C120.335 65.224 119.887 65.3947 119.333 65.736C117.413 67.1013 115.578 68.1467 113.829 68.872C112.079 69.5547 109.967 69.896 107.493 69.896C103.439 69.896 99.8765 68.9787 96.8045 67.144C93.7752 65.3093 91.4072 62.664 89.7005 59.208C88.0365 55.7093 87.2045 51.5493 87.2045 46.728C87.2045 42.0347 88.0578 37.8747 89.7645 34.248C91.5138 30.6213 93.9245 27.8053 96.9965 25.8C100.111 23.7947 103.631 22.792 107.557 22.792Z" fill="black"/>
</svg>
