<svg width="135" height="43" viewBox="0 0 135 43" fill="none" xmlns="http://www.w3.org/2000/svg">
<path d="M69.6 35V20.2H72.18L76.54 29L80.88 20.2H83.46V35H81.54V23.08L77.46 31.2H75.6L71.52 23.04V35H69.6ZM91.0508 24.2C91.7174 24.2 92.2774 24.3067 92.7308 24.52C93.1841 24.7333 93.5508 24.9867 93.8308 25.28C94.1108 25.56 94.3241 25.8267 94.4708 26.08H94.5908V24.4H96.4908V35H94.5908V33.32H94.4708C94.3241 33.5733 94.1108 33.8467 93.8308 34.14C93.5508 34.4333 93.1841 34.6867 92.7308 34.9C92.2774 35.1 91.7174 35.2 91.0508 35.2C90.2508 35.2 89.5508 35.0467 88.9508 34.74C88.3508 34.42 87.8508 34 87.4508 33.48C87.0508 32.9467 86.7508 32.3533 86.5508 31.7C86.3508 31.0467 86.2508 30.38 86.2508 29.7C86.2508 29.02 86.3508 28.3533 86.5508 27.7C86.7508 27.0467 87.0508 26.46 87.4508 25.94C87.8508 25.4067 88.3508 24.9867 88.9508 24.68C89.5508 24.36 90.2508 24.2 91.0508 24.2ZM91.3708 25.82C90.6641 25.82 90.0708 26.0133 89.5908 26.4C89.1108 26.7733 88.7508 27.2533 88.5108 27.84C88.2841 28.4267 88.1708 29.0467 88.1708 29.7C88.1708 30.34 88.2841 30.96 88.5108 31.56C88.7508 32.1467 89.1108 32.6333 89.5908 33.02C90.0708 33.3933 90.6641 33.58 91.3708 33.58C92.0774 33.58 92.6641 33.3933 93.1308 33.02C93.6108 32.6333 93.9641 32.1467 94.1908 31.56C94.4308 30.96 94.5508 30.34 94.5508 29.7C94.5508 29.0467 94.4308 28.4267 94.1908 27.84C93.9641 27.2533 93.6108 26.7733 93.1308 26.4C92.6641 26.0133 92.0774 25.82 91.3708 25.82ZM103.392 35.2C102.299 35.2 101.472 34.92 100.912 34.36C100.366 33.8 100.092 33.0133 100.092 32V25.96H98.1922V24.4H100.092V21.74H101.992V24.4H104.572V25.96H101.992V32C101.992 32.5333 102.139 32.9267 102.432 33.18C102.726 33.42 103.152 33.54 103.712 33.54C104.006 33.54 104.286 33.52 104.552 33.48C104.819 33.44 104.952 33.42 104.952 33.42V35.04C104.952 35.04 104.799 35.0667 104.492 35.12C104.186 35.1733 103.819 35.2 103.392 35.2ZM112.076 35.2C111.21 35.2 110.45 35.0467 109.796 34.74C109.143 34.42 108.596 34 108.156 33.48C107.73 32.9467 107.403 32.3533 107.176 31.7C106.963 31.0467 106.856 30.38 106.856 29.7C106.856 29.02 106.963 28.36 107.176 27.72C107.39 27.0667 107.71 26.4733 108.136 25.94C108.576 25.4067 109.123 24.9867 109.776 24.68C110.43 24.36 111.196 24.2 112.076 24.2C112.93 24.2 113.636 24.3267 114.196 24.58C114.756 24.8333 115.203 25.1533 115.536 25.54C115.883 25.9133 116.136 26.2933 116.296 26.68C116.47 27.0533 116.583 27.3667 116.636 27.62C116.69 27.8733 116.716 28 116.716 28H114.876C114.876 28 114.843 27.8933 114.776 27.68C114.71 27.4533 114.583 27.2 114.396 26.92C114.21 26.64 113.93 26.3933 113.556 26.18C113.183 25.9533 112.69 25.84 112.076 25.84C111.343 25.84 110.723 26.0267 110.216 26.4C109.723 26.76 109.35 27.2333 109.096 27.82C108.856 28.4067 108.736 29.0333 108.736 29.7C108.736 30.3667 108.856 30.9933 109.096 31.58C109.35 32.1667 109.723 32.6467 110.216 33.02C110.723 33.38 111.343 33.56 112.076 33.56C112.69 33.56 113.183 33.4533 113.556 33.24C113.93 33.0133 114.21 32.76 114.396 32.48C114.583 32.2 114.71 31.9533 114.776 31.74C114.843 31.5133 114.876 31.4 114.876 31.4H116.716C116.716 31.4 116.69 31.5267 116.636 31.78C116.583 32.0333 116.47 32.3533 116.296 32.74C116.136 33.1133 115.883 33.4933 115.536 33.88C115.203 34.2533 114.756 34.5667 114.196 34.82C113.636 35.0733 112.93 35.2 112.076 35.2ZM119.522 35V19.8H121.422V25.94H121.542C121.635 25.78 121.789 25.56 122.002 25.28C122.229 25 122.549 24.7533 122.962 24.54C123.375 24.3133 123.895 24.2 124.522 24.2C125.295 24.2 125.955 24.38 126.502 24.74C127.049 25.0867 127.462 25.56 127.742 26.16C128.035 26.76 128.182 27.4333 128.182 28.18V35H126.282V28.3C126.282 27.5933 126.082 27.0067 125.682 26.54C125.295 26.0733 124.729 25.84 123.982 25.84C123.382 25.84 122.895 25.9933 122.522 26.3C122.149 26.5933 121.869 26.9867 121.682 27.48C121.509 27.96 121.422 28.4733 121.422 29.02V35H119.522Z" fill="black"/>
<path d="M18.944 12.344C18.7947 13.8587 18.72 15.224 18.72 16.44C18.72 17.5067 18.752 18.3813 18.816 19.064H18.08C17.9093 17.4213 17.696 16.2053 17.44 15.416C17.184 14.6053 16.736 14.0187 16.096 13.656C15.456 13.272 14.4747 13.08 13.152 13.08H11.424V31.288C11.424 32.184 11.5093 32.8347 11.68 33.24C11.8507 33.6453 12.1493 33.9227 12.576 34.072C13.0027 34.2213 13.696 34.3173 14.656 34.36V35C13.5467 34.936 11.9787 34.904 9.952 34.904C7.81867 34.904 6.24 34.936 5.216 35V34.36C6.176 34.3173 6.86933 34.2213 7.296 34.072C7.72267 33.9227 8.02133 33.6453 8.192 33.24C8.36267 32.8347 8.448 32.184 8.448 31.288V13.08H6.72C5.39733 13.08 4.416 13.272 3.776 13.656C3.136 14.0187 2.688 14.6053 2.432 15.416C2.176 16.2053 1.96267 17.4213 1.792 19.064H1.056C1.12 18.3813 1.152 17.5067 1.152 16.44C1.152 15.224 1.07733 13.8587 0.928 12.344C2.69867 12.408 5.70667 12.44 9.952 12.44C14.176 12.44 17.1733 12.408 18.944 12.344ZM31.747 11.896C33.027 11.896 34.115 12.0773 35.011 12.44C35.907 12.8027 36.7817 13.3147 37.635 13.976C37.8697 14.168 38.0723 14.264 38.243 14.264C38.6697 14.264 38.947 13.624 39.075 12.344H39.811C39.7257 13.7307 39.683 16.184 39.683 19.704H38.947C38.7123 18.3173 38.499 17.3253 38.307 16.728C38.115 16.1093 37.795 15.5227 37.347 14.968C36.707 14.136 35.8857 13.5173 34.883 13.112C33.9017 12.6853 32.835 12.472 31.683 12.472C30.2963 12.472 29.0803 12.9307 28.035 13.848C27.011 14.7653 26.211 16.0773 25.635 17.784C25.059 19.4693 24.771 21.4533 24.771 23.736C24.771 26.0613 25.0803 28.056 25.699 29.72C26.3177 31.384 27.171 32.6533 28.259 33.528C29.3683 34.3813 30.6163 34.808 32.003 34.808C33.0697 34.808 34.1043 34.6053 35.107 34.2C36.1097 33.7947 36.899 33.1867 37.475 32.376C37.9017 31.7787 38.211 31.1387 38.403 30.456C38.595 29.7733 38.7763 28.728 38.947 27.32H39.683C39.683 30.9893 39.7257 33.5493 39.811 35H39.075C39.011 34.3173 38.915 33.8373 38.787 33.56C38.6803 33.2613 38.5203 33.112 38.307 33.112C38.1363 33.112 37.9123 33.1973 37.635 33.368C36.675 34.0507 35.7577 34.5733 34.883 34.936C34.0083 35.2773 32.9523 35.448 31.715 35.448C29.6883 35.448 27.907 34.9893 26.371 34.072C24.8563 33.1547 23.6723 31.832 22.819 30.104C21.987 28.3547 21.571 26.2747 21.571 23.864C21.571 21.5173 21.9977 19.4373 22.851 17.624C23.7257 15.8107 24.931 14.4027 26.467 13.4C28.0243 12.3973 29.7843 11.896 31.747 11.896ZM53.7783 11.896C55.0583 11.896 56.1463 12.0773 57.0423 12.44C57.9383 12.8027 58.8129 13.3147 59.6663 13.976C59.9009 14.168 60.1036 14.264 60.2743 14.264C60.7009 14.264 60.9783 13.624 61.1063 12.344H61.8423C61.7569 13.7307 61.7143 16.184 61.7143 19.704H60.9783C60.7436 18.3173 60.5303 17.3253 60.3383 16.728C60.1463 16.1093 59.8263 15.5227 59.3783 14.968C58.7383 14.136 57.9169 13.5173 56.9143 13.112C55.9329 12.6853 54.8663 12.472 53.7143 12.472C52.3276 12.472 51.1116 12.9307 50.0663 13.848C49.0423 14.7653 48.2423 16.0773 47.6663 17.784C47.0903 19.4693 46.8023 21.4533 46.8023 23.736C46.8023 26.0613 47.1116 28.056 47.7303 29.72C48.3489 31.384 49.2023 32.6533 50.2903 33.528C51.3996 34.3813 52.6476 34.808 54.0343 34.808C55.1009 34.808 56.1356 34.6053 57.1383 34.2C58.1409 33.7947 58.9303 33.1867 59.5063 32.376C59.9329 31.7787 60.2423 31.1387 60.4343 30.456C60.6263 29.7733 60.8076 28.728 60.9783 27.32H61.7143C61.7143 30.9893 61.7569 33.5493 61.8423 35H61.1063C61.0423 34.3173 60.9463 33.8373 60.8183 33.56C60.7116 33.2613 60.5516 33.112 60.3383 33.112C60.1676 33.112 59.9436 33.1973 59.6663 33.368C58.7063 34.0507 57.7889 34.5733 56.9143 34.936C56.0396 35.2773 54.9836 35.448 53.7463 35.448C51.7196 35.448 49.9383 34.9893 48.4023 34.072C46.8876 33.1547 45.7036 31.832 44.8503 30.104C44.0183 28.3547 43.6023 26.2747 43.6023 23.864C43.6023 21.5173 44.0289 19.4373 44.8823 17.624C45.7569 15.8107 46.9623 14.4027 48.4983 13.4C50.0556 12.3973 51.8156 11.896 53.7783 11.896Z" fill="black"/>
</svg>
